<?xml version="1.0"?>
<svg width="512" height="512" xmlns="http://www.w3.org/2000/svg" xmlns:svg="http://www.w3.org/2000/svg" enable-background="new 0 0 512 512" version="1.1" xml:space="preserve">
 <g class="layer">
  <title>Layer 1</title>
  <path d="m401,236.17c2.7,-0.03 5.39,-0.07 8.53,0.42c0.44,70.36 0.43,140.18 0.42,210.01c-1.83,0.07 -3.66,0.21 -5.48,0.21c-110.94,0.01 -221.89,0.01 -332.83,0.01c-1.8,0 -3.59,0 -5.75,0c0,-70.35 0,-140.23 0,-210.45c15.01,0 30.06,0 45.58,0c0,10.5 0.01,20.79 -0.01,31.09c-0.03,19.51 7.34,35.45 23.7,46.35c5.55,3.69 12.21,5.89 18.62,8.02c2.99,0.99 3.92,2.02 3.9,5.03c-0.13,16.66 -0.03,33.32 -0.08,49.98c-0.02,3.98 0.14,7.88 4.46,9.69c4.45,1.86 7.5,-0.61 10.49,-3.61c18.8,-18.9 37.72,-37.67 56.47,-56.61c2.32,-2.35 4.64,-3.21 7.86,-3.19c22.82,0.11 45.64,0.02 68.46,0.09c4.79,0.01 8.15,-1.48 9.36,-7.08c8.32,-0.37 16.1,-0.38 23.87,-0.39c1.51,6.21 3.05,7.44 9.19,7.35c26.53,-0.4 49.87,-22.38 51.32,-48.85c0.67,-12.09 0.37,-24.24 0.85,-36.88c0.65,-0.68 0.89,-0.9 1.07,-1.19z" fill="#8F9DBF" id="svg_2" opacity="1"/>
  <path d="m338.68,315.38c-7.88,0.37 -15.66,0.38 -23.88,0.37c-1.86,-6.02 -3.62,-7.55 -9.66,-7.55c-24.66,-0.04 -49.32,-0.16 -73.98,0.16c-3.07,0.04 -6.82,1.8 -9.07,3.99c-15.06,14.62 -29.8,29.58 -44.65,44.41c-1.24,1.24 -2.56,2.41 -4.47,4.2c-0.16,-2.23 -0.35,-3.62 -0.35,-5.02c-0.03,-12.66 0.03,-25.33 -0.04,-37.99c-0.04,-7.17 -2.36,-9.47 -9.6,-9.87c-19.4,-1.07 -34.74,-16.03 -36.23,-35.39c-0.18,-2.32 -0.23,-4.66 -0.23,-6.99c-0.01,-33.49 -0.06,-66.99 0.01,-100.48c0.06,-24.78 16.32,-41.02 40.98,-41.03c56.82,-0.02 113.64,-0.01 170.47,-0.01c1.45,0 2.9,0 5.06,0c-1.08,1.74 -1.76,2.98 -2.59,4.12c-15.18,21.07 -30.46,42.07 -45.48,63.26c-1.79,2.52 -2.92,6 -3.06,9.09c-0.62,13.15 -0.8,26.32 -1.05,39.48c-0.17,8.77 4.05,11.73 12.45,8.76c12.38,-4.37 24.8,-8.64 37.06,-13.32c2.75,-1.05 5.52,-3.18 7.28,-5.56c11.11,-14.97 21.94,-30.16 32.87,-45.27c0.93,-1.29 1.94,-2.53 3.53,-4.61c0.21,2.15 0.42,3.37 0.42,4.58c0.02,27.66 0.1,55.32 -0.01,82.98c-0.08,20.58 -11.91,35.64 -31,39.73c-2.1,0.45 -4.28,0.57 -6.44,0.67c-4.54,0.23 -7.66,2.04 -8.34,7.29m-72.19,-129.31c-2.7,-1.3 -5.39,-3.7 -8.1,-3.73c-26.61,-0.28 -53.23,-0.19 -79.84,-0.15c-5.72,0.02 -9.08,3.07 -8.95,7.77c0.12,4.53 3.27,7.2 8.88,7.21c26.61,0.04 53.23,0.05 79.85,0c7.21,-0.01 9.74,-3.22 8.16,-11.1m-4.71,63.9c4.27,-1.43 6.24,-4.4 5.37,-8.81c-0.89,-4.56 -4.31,-6.03 -8.53,-6.03c-26.82,-0.02 -53.65,-0.05 -80.47,0.03c-5.38,0.01 -8.62,3.15 -8.54,7.7c0.08,4.6 3.2,7.25 8.83,7.26c27.49,0.01 54.98,-0.03 83.34,-0.15z" fill="#FED26C" id="svg_3" opacity="1"/>
  <path d="m454.03,494.6c-3.94,0.29 -7,1.59 -8.22,5.92c-0.29,1.06 -2.21,2.31 -3.42,2.35c-6.83,0.23 -13.67,0.29 -20.49,-0.02c-1.38,-0.06 -3.23,-1.68 -3.89,-3.05c-1.55,-3.22 -3.68,-5.02 -7.3,-4.96c-1.67,0.03 -3.33,-0.02 -5,-0.02c-120.5,0 -240.99,-0.19 -361.49,0.22c-17.17,0.06 -30,-8.42 -28.24,-28.56c0.12,-1.31 0.02,-2.64 0.02,-4.31c66.92,0 133.64,0 200.47,0c0.77,2.85 1.23,5.99 2.44,8.8c4.05,9.42 11.27,14.76 21.59,15.09c9.82,0.31 19.66,0.13 29.49,0.11c16.01,-0.04 24.92,-7.88 27.29,-24.33c55.22,0 110.51,0 166.26,0.57c1.19,12.38 0.15,23.64 -9.51,32.19z" fill="#8DE4F1" id="svg_4" opacity="1"/>
  <path d="m410.41,446.69c-0.45,-69.92 -0.44,-139.74 -0.43,-210.02c12.6,-0.46 25.21,-0.46 38.14,-0.46c0,70.12 0,139.94 0,210.57c-12.46,0 -24.85,0 -37.71,-0.09z" fill="#7F8BA9" id="svg_5" opacity="1"/>
  <path d="m412.34,61.46c8.5,6.18 16.71,12.12 25.41,18.42c-33.08,45.78 -65.98,91.33 -99.24,137.37c-9.61,-6.94 -19.09,-13.77 -28.78,-20.76c12.1,-16.75 23.98,-33.2 35.86,-49.65c20.27,-28.07 40.55,-56.12 60.79,-84.21c1.58,-2.2 2.96,-4.21 5.96,-1.17z" fill="#F88F83" id="svg_6" opacity="1"/>
  <path d="m35.46,316c0,-27.66 0.6,-54.85 -0.2,-81.99c-0.62,-21.19 13.17,-31.94 30.84,-31.02c14.92,0.78 29.91,0.16 45.16,0.16c0,6.02 0,11.62 0,17.91c-2.41,0 -4.83,0 -7.26,0c-13.99,0 -27.99,0 -41.99,0c-9.51,0 -11.46,1.92 -11.46,11.33c-0.01,69.33 -0.01,138.65 -0.01,207.98c0,1.97 0,3.94 0,6.19c-5.04,0 -9.63,0 -14.85,0c-0.07,-1.63 -0.22,-3.38 -0.22,-5.13c-0.02,-12.33 -0.06,-24.66 0.01,-36.99c0.02,-4.73 -0.84,-8.59 -6.43,-9.68c-0.87,-0.18 -1.94,-2.13 -1.97,-3.29c-0.19,-6.33 -0.22,-12.67 0.02,-18.99c0.05,-1.19 1.41,-3.05 2.5,-3.35c4.91,-1.31 5.88,-4.77 5.87,-9.14c-0.04,-14.49 -0.01,-28.99 -0.01,-43.99z" fill="#B9EBF3" id="svg_7" opacity="1"/>
  <path d="m463.45,245c0,-5 0.04,-9.5 -0.01,-14c-0.07,-7.46 -2.49,-9.92 -9.85,-9.93c-17.82,-0.03 -35.64,-0.01 -53.8,-0.01c0,-5.95 0,-11.67 0,-17.91c8.77,0 17.39,0 26,0c8.83,0 17.66,-0.08 26.49,0.02c14.66,0.16 25.17,10.13 26.18,24.72c0.1,1.49 0.08,3 0.08,4.49c0.01,69.66 0.01,139.31 0.01,208.97c0,1.64 0,3.28 0,5.2c-5.03,0 -9.62,0 -15.1,0c0,-66.95 0,-134 0,-201.55z" fill="#B8E9F2" id="svg_8" opacity="1"/>
  <path d="m432.47,57.53c-4.98,-3.61 -9.67,-7 -14.7,-10.62c5.34,-7.35 10.24,-14.63 15.71,-21.45c5.84,-7.27 16.33,-8.26 23.79,-2.8c7.47,5.47 9.72,15.65 4.63,23.51c-4.69,7.24 -9.98,14.07 -15.29,21.49c-4.78,-3.42 -9.32,-6.66 -14.14,-10.13z" fill="#FC6BB3" id="svg_9" opacity="1"/>
  <path d="m454.49,494.7c9.2,-8.65 10.24,-19.91 9.51,-32.2c11.13,-0.46 22.26,-0.46 34.37,-0.46c-0.47,5.77 -0.23,11.65 -1.57,17.15c-2.28,9.37 -11.06,15.4 -21.37,15.6c-6.83,0.13 -13.66,0.01 -20.94,-0.09z" fill="#71CFF9" id="svg_10" opacity="1"/>
  <path d="m232.2,462.59c16.52,-0.42 32.92,-0.42 49.33,-0.42c-0.33,5.42 -3.12,8.77 -8.33,8.87c-10.79,0.23 -21.59,0.22 -32.38,0.01c-4.99,-0.1 -7.74,-3.27 -8.62,-8.46z" fill="#C1F4FD" id="svg_11" opacity="1"/>
  <path d="m307.47,231.44c-0.71,-3.09 -1.15,-6.31 -1.34,-9.54c-0.16,-2.76 -0.04,-5.53 -0.04,-9.56c6.49,4.69 12.01,8.69 18.16,13.14c-5.95,2.11 -11.18,3.96 -16.78,5.96z" fill="#F38E65" id="svg_12" opacity="1"/>
  <path d="m400.71,236.13c0.11,0.33 -0.13,0.55 -0.67,0.78c-0.04,-0.23 0.16,-0.52 0.67,-0.78z" fill="#7F8BA9" id="svg_13" opacity="1"/>
  <path d="m266.67,186.4c1.4,7.55 -1.13,10.76 -8.34,10.77c-26.62,0.05 -53.24,0.04 -79.85,0c-5.61,-0.01 -8.76,-2.68 -8.88,-7.21c-0.13,-4.7 3.23,-7.75 8.95,-7.77c26.61,-0.04 53.23,-0.13 79.84,0.15c2.71,0.03 5.4,2.43 8.28,4.06z" fill="#050402" id="svg_14" opacity="1"/>
  <path d="m261.34,250.02c-27.92,0.07 -55.41,0.11 -82.9,0.1c-5.63,-0.01 -8.75,-2.66 -8.83,-7.26c-0.08,-4.55 3.16,-7.69 8.54,-7.7c26.82,-0.08 53.65,-0.05 80.47,-0.03c4.22,0 7.64,1.47 8.53,6.03c0.87,4.41 -1.1,7.38 -5.81,8.86z" fill="#040302" id="svg_15" opacity="1"/>
 </g>
</svg>