<svg version="1.1" id="Layer_1" xmlns="http://www.w3.org/2000/svg" xmlns:xlink="http://www.w3.org/1999/xlink" x="0px" y="0px"
	 width="100%" viewBox="0 0 512 512" enable-background="new 0 0 512 512" xml:space="preserve">
<path fill="#000000" opacity="1.000000" stroke="none" 
	d="
M513.000000,251.000000 
	C513.000000,338.645386 513.000000,425.790771 513.000000,512.968079 
	C342.396271,512.968079 171.792526,512.968079 1.094398,512.968079 
	C1.094398,342.437958 1.094398,171.875870 1.094398,1.156883 
	C171.666550,1.156883 342.333252,1.156883 513.000000,1.156883 
	C513.000000,84.207428 513.000000,167.353714 513.000000,251.000000 
M405.014069,270.995911 
	C405.010864,260.503937 404.891174,250.009903 405.073303,239.521133 
	C405.130188,236.245453 403.654968,235.275299 400.811340,234.972946 
	C395.301025,234.387085 389.823944,233.357513 384.302643,233.037827 
	C376.637085,232.593994 372.711517,229.588425 370.626373,221.426208 
	C368.068695,211.414200 362.824554,202.088455 358.535492,191.979691 
	C363.514282,185.439957 369.071777,178.210602 374.541443,170.915359 
	C376.328827,168.531448 376.291565,166.515121 373.804230,164.141937 
	C365.734161,156.442307 357.827118,148.558746 350.142365,140.475037 
	C347.281433,137.465561 345.208893,137.853195 342.283752,140.137604 
	C336.008118,145.038635 329.589905,149.766449 323.067902,154.333603 
	C321.967224,155.104370 319.594940,155.417114 318.589661,154.756073 
	C308.590179,148.180618 297.517029,144.104614 286.065796,141.280975 
	C282.887878,140.497360 282.442627,138.672989 282.148224,136.850815 
	C280.874664,128.968201 279.770172,121.039597 279.107239,113.085793 
	C278.824738,109.695663 277.552216,108.928421 274.491150,108.959991 
	C262.834625,109.080185 251.174713,109.107147 239.519363,108.939713 
	C236.571793,108.897369 235.369904,110.098541 235.014557,112.730560 
	C234.011368,120.160835 233.110291,127.607246 231.946503,135.012329 
	C231.486465,137.939468 231.305740,140.771866 226.737335,141.310547 
	C222.066681,141.861282 217.619263,144.305313 213.014236,145.066162 
	C215.227051,134.367096 214.151611,123.682816 211.730392,113.277435 
	C210.678513,108.756775 212.059860,107.095337 215.402603,105.107681 
	C221.387619,101.548851 227.158005,97.629082 232.933990,93.914284 
	C224.211533,80.286568 215.786194,67.123062 207.171158,53.663174 
	C199.526291,58.558632 192.142761,63.286743 185.915939,67.274139 
	C174.392197,61.063465 163.563522,55.227390 151.877075,48.929035 
	C151.877075,41.699154 151.877075,33.091785 151.877075,24.295755 
	C135.794266,24.295755 120.080269,24.295755 104.039291,24.295755 
	C104.039291,33.203815 104.039291,41.823071 104.039291,50.512287 
	C92.821030,53.775150 82.993279,59.042034 74.079056,66.170433 
	C72.976738,67.051910 70.084114,66.839554 68.686790,66.011185 
	C62.247185,62.193592 56.043449,57.978123 49.752396,53.903549 
	C49.077515,54.526367 48.469749,54.897816 48.121159,55.436867 
	C40.838772,66.698235 33.853817,78.165024 26.201490,89.167946 
	C22.912193,93.897476 25.074173,95.299210 28.786446,97.449051 
	C34.694706,100.870621 40.321060,104.778984 45.326298,108.004395 
	C44.158260,116.757263 42.227394,124.826981 42.242977,132.892944 
	C42.258854,141.110870 44.189587,149.325119 45.305641,157.719482 
	C39.141640,161.786179 32.551464,166.027390 26.121195,170.498581 
	C25.221056,171.124466 24.322672,173.376144 24.742628,174.037094 
	C32.799469,186.717575 41.053741,199.272614 49.315948,211.928238 
	C57.057755,207.084488 64.602203,202.364227 71.982887,197.746429 
	C80.792046,205.292267 89.949707,210.897354 100.486855,213.928665 
	C103.215446,214.713638 104.121552,215.977692 104.060600,218.758850 
	C103.893410,226.387680 104.002945,234.022568 104.002945,241.785965 
	C105.958893,241.897842 107.434433,241.982239 108.988091,242.992676 
	C108.991943,253.151505 109.181290,263.315308 108.909279,273.466766 
	C108.798866,277.587067 110.297592,278.746582 114.208061,279.109802 
	C121.663651,279.802216 129.083954,281.003143 136.460144,282.321808 
	C138.089355,282.613007 140.526550,284.043701 140.808289,285.337891 
	C143.633453,298.315430 149.628754,309.913727 155.947311,321.294586 
	C150.273132,328.842590 144.678360,336.249146 139.128632,343.689331 
	C137.468231,345.915314 137.960602,347.629730 140.027359,349.629089 
	C148.164795,357.501129 156.199341,365.488129 164.027878,373.666199 
	C166.741821,376.501282 168.770721,376.155579 171.547592,374.000671 
	C178.613403,368.517395 185.827682,363.225403 192.626221,358.124207 
	C198.502960,361.153229 203.858627,364.278229 209.508636,366.722992 
	C215.130371,369.155518 220.919495,371.629883 226.883087,372.684967 
	C230.529663,373.330109 231.331512,375.354675 231.740021,377.677551 
	C233.066940,385.222412 234.304733,392.820099 234.851944,400.449463 
	C235.133743,404.378113 236.589127,405.105225 240.033035,405.058105 
	C251.355515,404.903198 262.684357,404.854248 274.004395,405.081970 
	C277.757446,405.157501 278.641083,403.591522 279.084534,400.255249 
	C280.153198,392.215515 281.543335,384.211029 283.112640,376.253235 
	C283.358978,375.003998 285.036804,373.598877 286.369507,373.080841 
	C291.147095,371.223724 296.060822,369.716766 300.988556,368.926971 
	C300.659058,370.671753 300.065765,372.413239 300.044006,374.161896 
	C299.925446,383.685150 299.681183,393.209015 302.660889,402.495941 
	C303.046204,403.696777 301.763397,406.150330 300.539520,407.026123 
	C295.141815,410.888611 289.545807,414.488312 283.889160,417.967896 
	C281.409882,419.493011 281.047180,420.782867 282.708405,423.285309 
	C290.771881,435.432281 298.665192,447.692230 306.860596,460.283691 
	C314.329956,455.515717 321.807495,450.742462 327.890900,446.859192 
	C339.565399,453.107910 350.441742,458.929413 362.149902,465.196136 
	C362.149902,472.370392 362.149902,480.978180 362.149902,489.738007 
	C378.177124,489.738007 393.897278,489.738007 409.912964,489.738007 
	C409.912964,480.868439 409.912964,472.253418 409.912964,463.508118 
	C421.126892,460.222900 431.061737,455.025787 439.954163,447.754608 
	C440.999634,446.899750 443.690521,446.877594 444.918549,447.622894 
	C451.410431,451.562683 457.678101,455.871887 464.188171,460.161469 
	C464.955444,459.441376 465.840668,458.887085 466.349060,458.091827 
	C473.594757,446.757507 480.555298,435.231232 488.118469,424.114441 
	C490.914246,420.005066 489.081085,418.808716 485.953522,416.943512 
	C479.853058,413.305328 473.927643,409.373535 468.047089,405.637909 
	C472.775513,389.008667 472.622040,372.710388 468.145874,356.514099 
	C474.891235,352.269592 481.535431,348.230835 487.969269,343.880981 
	C488.892792,343.256592 489.598236,340.629547 489.060547,339.776184 
	C481.109741,327.156952 472.931641,314.680908 464.706360,302.015411 
	C458.143524,306.163147 451.606659,310.010437 445.416046,314.351501 
	C443.051056,316.009857 441.895752,316.149719 439.588043,314.243347 
	C431.926941,307.914459 423.457397,302.781342 413.802063,300.133179 
	C410.490570,299.224976 409.894928,297.595856 409.959137,294.613800 
	C410.119843,287.152161 410.012207,279.684753 410.012207,272.148407 
	C408.059570,272.058075 406.573792,271.989349 405.014069,270.995911 
M407.007782,109.492134 
	C444.913361,147.998672 464.522400,194.512787 467.188202,248.760513 
	C463.229584,245.314331 459.718262,241.410751 456.089294,237.619781 
	C453.115936,234.513672 449.807068,234.070541 446.480865,237.073898 
	C443.990875,239.322220 444.368896,243.834915 447.275818,246.765320 
	C454.549133,254.097443 461.955780,261.299438 469.133514,268.723297 
	C472.171844,271.865845 475.777924,272.101257 478.427551,269.563721 
	C486.933044,261.418121 495.132111,252.930496 503.078918,244.236206 
	C505.674011,241.397018 503.661285,236.981216 499.969482,235.525497 
	C496.448944,234.137329 493.881989,235.672867 491.516815,238.008041 
	C487.940552,241.538971 484.381042,245.086899 481.089569,248.354431 
	C478.997986,233.879303 478.048218,219.613785 474.696106,205.937057 
	C469.848083,186.156845 462.990326,166.987411 452.716187,149.098465 
	C440.796631,128.344604 426.568573,109.652145 408.985718,93.345795 
	C390.297729,76.014580 369.523560,62.081596 346.122498,52.032871 
	C317.589355,39.780376 287.945160,33.110783 256.743164,33.923019 
	C252.513580,34.033119 251.181152,36.076336 251.022583,39.682297 
	C250.855637,43.478989 252.820770,45.624157 256.517059,45.956585 
	C261.611115,46.414726 266.721741,46.892696 271.829987,46.951481 
	C286.957458,47.125553 301.614746,50.321266 315.940186,54.591408 
	C350.712402,64.956299 381.176483,82.769287 407.007782,109.492134 
M116.540245,431.014709 
	C132.550644,443.220062 149.276993,454.187012 167.950821,462.032471 
	C196.583389,474.061890 226.184235,480.937500 257.411163,480.072693 
	C261.372375,479.963013 262.701202,478.027496 262.968140,474.663483 
	C263.262573,470.952545 261.540100,468.447052 257.827484,468.078522 
	C252.074051,467.507477 246.252747,467.587616 240.510590,466.943024 
	C231.536346,465.935608 222.513367,465.007507 213.672180,463.239838 
	C191.864944,458.879822 171.430313,450.812317 152.175354,439.627106 
	C138.574829,431.726593 125.667145,422.889587 114.484756,411.836121 
	C106.612862,404.054962 99.175812,395.794769 91.983826,387.373352 
	C78.571594,371.668427 68.754311,353.746399 61.074909,334.665588 
	C52.183739,312.573944 47.398705,289.561615 46.424835,264.516449 
	C50.596672,268.836975 54.068192,272.595215 57.720474,276.168732 
	C61.363438,279.733124 64.743584,279.849121 67.684959,276.788147 
	C69.998772,274.380249 69.552605,270.069153 66.576485,267.076233 
	C59.293499,259.752167 51.893234,252.542801 44.702854,245.129471 
	C41.608852,241.939514 37.977398,242.050293 35.395542,244.527847 
	C27.009102,252.575577 19.007225,261.034851 11.117584,269.576111 
	C10.105487,270.671783 10.037110,273.373627 10.554120,275.007904 
	C12.030009,279.673279 17.727074,280.447021 21.907228,276.504639 
	C25.716427,272.912079 29.197531,268.971619 32.921471,265.081879 
	C34.788994,278.504425 35.778217,291.169556 38.416309,303.481384 
	C45.009979,334.253754 57.124672,362.787598 76.102142,388.062012 
	C83.318542,397.672913 91.210358,406.825867 99.351074,415.675415 
	C104.362915,421.123627 110.427391,425.603577 116.540245,431.014709 
z"/>
<path fill="#FFAB03" opacity="1.000000" stroke="none" 
	d="
M300.923065,368.077393 
	C296.060822,369.716766 291.147095,371.223724 286.369507,373.080841 
	C285.036804,373.598877 283.358978,375.003998 283.112640,376.253235 
	C281.543335,384.211029 280.153198,392.215515 279.084534,400.255249 
	C278.641083,403.591522 277.757446,405.157501 274.004395,405.081970 
	C262.684357,404.854248 251.355515,404.903198 240.033035,405.058105 
	C236.589127,405.105225 235.133743,404.378113 234.851944,400.449463 
	C234.304733,392.820099 233.066940,385.222412 231.740021,377.677551 
	C231.331512,375.354675 230.529663,373.330109 226.883087,372.684967 
	C220.919495,371.629883 215.130371,369.155518 209.508636,366.722992 
	C203.858627,364.278229 198.502960,361.153229 192.626221,358.124207 
	C185.827682,363.225403 178.613403,368.517395 171.547592,374.000671 
	C168.770721,376.155579 166.741821,376.501282 164.027878,373.666199 
	C156.199341,365.488129 148.164795,357.501129 140.027359,349.629089 
	C137.960602,347.629730 137.468231,345.915314 139.128632,343.689331 
	C144.678360,336.249146 150.273132,328.842590 155.947311,321.294586 
	C149.628754,309.913727 143.633453,298.315430 140.808289,285.337891 
	C140.526550,284.043701 138.089355,282.613007 136.460144,282.321808 
	C129.083954,281.003143 121.663651,279.802216 114.208061,279.109802 
	C110.297592,278.746582 108.798866,277.587067 108.909279,273.466766 
	C109.181290,263.315308 108.991943,253.151505 109.133209,242.181824 
	C109.600380,239.764618 109.922432,238.158264 110.328125,236.134705 
	C119.159058,234.777130 128.041031,233.585892 136.832108,231.916153 
	C138.633240,231.574051 140.846634,229.769958 141.588913,228.077820 
	C146.248657,217.455231 150.569611,206.683243 154.932083,195.932053 
	C155.459671,194.631805 156.305099,192.611481 155.745636,191.855286 
	C151.735275,186.434692 147.399384,181.254929 143.004044,175.677292 
	C142.012848,174.173843 141.305664,172.879547 140.333939,171.830261 
	C137.126358,168.366638 138.160522,165.925949 141.415146,162.909821 
	C148.720230,156.140045 155.595566,148.906479 162.643982,141.859848 
	C167.580536,136.924545 167.579132,136.923141 173.150238,141.459229 
	C178.319504,145.732147 183.341217,149.711502 188.269989,154.125107 
	C184.502106,174.126236 184.645279,193.714508 190.194946,212.801010 
	C193.308563,223.509460 198.550415,233.599136 202.888916,244.379181 
	C202.296432,248.284790 201.111359,251.776291 201.094910,255.273285 
	C201.029312,269.221802 205.250931,282.052551 214.278336,292.561462 
	C230.583344,311.542297 256.511169,318.858185 281.062195,307.494385 
	C282.010742,308.328613 282.773041,309.042114 283.667633,309.304504 
	C301.603943,314.565002 319.901001,315.801331 338.349121,313.282043 
	C347.036774,312.095673 355.568787,309.769623 364.096741,308.321960 
	C362.310547,311.904388 360.541199,315.096161 358.919556,318.361267 
	C358.373474,319.460846 357.514465,321.266052 357.967590,321.866486 
	C362.109314,327.355042 366.508942,332.648926 370.980286,338.324036 
	C371.866852,339.712158 372.453247,340.937408 373.373566,341.810699 
	C376.752167,345.016632 376.380829,347.511566 372.933502,350.718536 
	C365.517090,357.617920 358.522919,364.971161 351.356567,372.139313 
	C346.409698,377.087250 346.410187,377.087738 340.879700,372.526306 
	C334.831909,367.680389 328.948853,363.080963 322.924896,358.674011 
	C322.086487,358.060699 320.309814,357.906738 319.382935,358.370453 
	C313.166840,361.480530 307.063171,364.815399 300.923065,368.077393 
z"/>
<path fill="#FFC44E" opacity="1.000000" stroke="none" 
	d="
M364.171326,307.960022 
	C355.568787,309.769623 347.036774,312.095673 338.349121,313.282043 
	C319.901001,315.801331 301.603943,314.565002 283.667633,309.304504 
	C282.773041,309.042114 282.010742,308.328613 281.402954,307.360107 
	C286.011475,303.837921 290.916077,301.308105 294.704102,297.628784 
	C308.223511,284.497406 314.757080,268.647797 312.042938,249.513718 
	C310.415741,238.042160 305.954773,227.834915 297.946381,219.551407 
	C284.746216,205.897690 268.797150,199.223557 249.497406,201.975571 
	C238.095200,203.601456 228.112518,208.242050 219.617386,215.932266 
	C211.208618,223.544296 205.912079,233.115738 202.833389,243.967590 
	C198.550415,233.599136 193.308563,223.509460 190.194946,212.801010 
	C184.645279,193.714508 184.502106,174.126236 188.584229,154.270935 
	C191.206635,154.348801 193.833145,155.661545 195.562607,154.909973 
	C201.567871,152.300323 207.261780,148.974136 213.074112,145.920532 
	C217.619263,144.305313 222.066681,141.861282 226.737335,141.310547 
	C231.305740,140.771866 231.486465,137.939468 231.946503,135.012329 
	C233.110291,127.607246 234.011368,120.160835 235.014557,112.730560 
	C235.369904,110.098541 236.571793,108.897369 239.519363,108.939713 
	C251.174713,109.107147 262.834625,109.080185 274.491150,108.959991 
	C277.552216,108.928421 278.824738,109.695663 279.107239,113.085793 
	C279.770172,121.039597 280.874664,128.968201 282.148224,136.850815 
	C282.442627,138.672989 282.887878,140.497360 286.065796,141.280975 
	C297.517029,144.104614 308.590179,148.180618 318.589661,154.756073 
	C319.594940,155.417114 321.967224,155.104370 323.067902,154.333603 
	C329.589905,149.766449 336.008118,145.038635 342.283752,140.137604 
	C345.208893,137.853195 347.281433,137.465561 350.142365,140.475037 
	C357.827118,148.558746 365.734161,156.442307 373.804230,164.141937 
	C376.291565,166.515121 376.328827,168.531448 374.541443,170.915359 
	C369.071777,178.210602 363.514282,185.439957 358.535492,191.979691 
	C362.824554,202.088455 368.068695,211.414200 370.626373,221.426208 
	C372.711517,229.588425 376.637085,232.593994 384.302643,233.037827 
	C389.823944,233.357513 395.301025,234.387085 400.811340,234.972946 
	C403.654968,235.275299 405.130188,236.245453 405.073303,239.521133 
	C404.891174,250.009903 405.010864,260.503937 404.857239,271.804260 
	C404.449799,274.234985 404.199188,275.857391 403.876190,277.948547 
	C395.241577,279.272125 386.588440,280.860321 377.865875,281.811462 
	C374.189880,282.212250 372.981354,283.797363 371.935974,287.052521 
	C369.665009,294.123566 366.795898,301.002533 364.171326,307.960022 
z"/>
<path fill="#7CB5E8" opacity="1.000000" stroke="none" 
	d="
M364.096741,308.321960 
	C366.795898,301.002533 369.665009,294.123566 371.935974,287.052521 
	C372.981354,283.797363 374.189880,282.212250 377.865875,281.811462 
	C386.588440,280.860321 395.241577,279.272125 403.876190,277.948547 
	C404.199188,275.857391 404.449799,274.234985 404.894226,272.266602 
	C406.573792,271.989349 408.059570,272.058075 410.012207,272.148407 
	C410.012207,279.684753 410.119843,287.152161 409.959137,294.613800 
	C409.894928,297.595856 410.490570,299.224976 413.802063,300.133179 
	C423.457397,302.781342 431.926941,307.914459 439.588043,314.243347 
	C441.895752,316.149719 443.051056,316.009857 445.416046,314.351501 
	C451.606659,310.010437 458.143524,306.163147 464.706360,302.015411 
	C472.931641,314.680908 481.109741,327.156952 489.060547,339.776184 
	C489.598236,340.629547 488.892792,343.256592 487.969269,343.880981 
	C481.535431,348.230835 474.891235,352.269592 468.145874,356.514099 
	C472.622040,372.710388 472.775513,389.008667 468.047089,405.637909 
	C473.927643,409.373535 479.853058,413.305328 485.953522,416.943512 
	C489.081085,418.808716 490.914246,420.005066 488.118469,424.114441 
	C480.555298,435.231232 473.594757,446.757507 466.349060,458.091827 
	C465.840668,458.887085 464.955444,459.441376 464.188171,460.161469 
	C457.678101,455.871887 451.410431,451.562683 444.918549,447.622894 
	C443.690521,446.877594 440.999634,446.899750 439.954163,447.754608 
	C431.061737,455.025787 421.126892,460.222900 409.912964,463.508118 
	C409.912964,472.253418 409.912964,480.868439 409.912964,489.738007 
	C393.897278,489.738007 378.177124,489.738007 362.149902,489.738007 
	C362.149902,480.978180 362.149902,472.370392 362.149902,465.196136 
	C350.441742,458.929413 339.565399,453.107910 327.890900,446.859192 
	C321.807495,450.742462 314.329956,455.515717 306.860596,460.283691 
	C298.665192,447.692230 290.771881,435.432281 282.708405,423.285309 
	C281.047180,420.782867 281.409882,419.493011 283.889160,417.967896 
	C289.545807,414.488312 295.141815,410.888611 300.539520,407.026123 
	C301.763397,406.150330 303.046204,403.696777 302.660889,402.495941 
	C299.681183,393.209015 299.925446,383.685150 300.044006,374.161896 
	C300.065765,372.413239 300.659058,370.671753 300.955811,368.502167 
	C307.063171,364.815399 313.166840,361.480530 319.382935,358.370453 
	C320.309814,357.906738 322.086487,358.060699 322.924896,358.674011 
	C328.948853,363.080963 334.831909,367.680389 340.504456,372.763458 
	C340.499329,379.208466 339.976135,385.265411 341.134064,390.981812 
	C346.039764,415.199982 370.650848,430.709167 394.330261,426.236938 
	C415.396667,422.258240 432.059723,402.238403 431.886658,380.743683 
	C431.806854,370.830597 428.274292,361.892456 422.409271,353.620453 
	C412.354156,339.438782 389.291534,329.881073 370.833344,337.999634 
	C366.508942,332.648926 362.109314,327.355042 357.967590,321.866486 
	C357.514465,321.266052 358.373474,319.460846 358.919556,318.361267 
	C360.541199,315.096161 362.310547,311.904388 364.096741,308.321960 
z"/>
<path fill="#8ABA55" opacity="1.000000" stroke="none" 
	d="
M213.044174,145.493347 
	C207.261780,148.974136 201.567871,152.300323 195.562607,154.909973 
	C193.833145,155.661545 191.206635,154.348801 188.677155,153.836670 
	C183.341217,149.711502 178.319504,145.732147 173.508972,141.203918 
	C175.582886,122.700211 170.468674,107.479378 155.766418,96.328323 
	C140.038742,84.399513 121.799133,83.932709 106.346802,92.475433 
	C88.699310,102.231728 77.701477,123.069923 83.950325,145.288254 
	C90.903282,170.010132 119.303001,185.919754 143.166885,175.998672 
	C147.399384,181.254929 151.735275,186.434692 155.745636,191.855286 
	C156.305099,192.611481 155.459671,194.631805 154.932083,195.932053 
	C150.569611,206.683243 146.248657,217.455231 141.588913,228.077820 
	C140.846634,229.769958 138.633240,231.574051 136.832108,231.916153 
	C128.041031,233.585892 119.159058,234.777130 110.328125,236.134705 
	C109.922432,238.158264 109.600380,239.764618 109.094154,241.718811 
	C107.434433,241.982239 105.958893,241.897842 104.002945,241.785965 
	C104.002945,234.022568 103.893410,226.387680 104.060600,218.758850 
	C104.121552,215.977692 103.215446,214.713638 100.486855,213.928665 
	C89.949707,210.897354 80.792046,205.292267 71.982887,197.746429 
	C64.602203,202.364227 57.057755,207.084488 49.315948,211.928238 
	C41.053741,199.272614 32.799469,186.717575 24.742628,174.037094 
	C24.322672,173.376144 25.221056,171.124466 26.121195,170.498581 
	C32.551464,166.027390 39.141640,161.786179 45.305641,157.719482 
	C44.189587,149.325119 42.258854,141.110870 42.242977,132.892944 
	C42.227394,124.826981 44.158260,116.757263 45.326298,108.004395 
	C40.321060,104.778984 34.694706,100.870621 28.786446,97.449051 
	C25.074173,95.299210 22.912193,93.897476 26.201490,89.167946 
	C33.853817,78.165024 40.838772,66.698235 48.121159,55.436867 
	C48.469749,54.897816 49.077515,54.526367 49.752396,53.903549 
	C56.043449,57.978123 62.247185,62.193592 68.686790,66.011185 
	C70.084114,66.839554 72.976738,67.051910 74.079056,66.170433 
	C82.993279,59.042034 92.821030,53.775150 104.039291,50.512287 
	C104.039291,41.823071 104.039291,33.203815 104.039291,24.295755 
	C120.080269,24.295755 135.794266,24.295755 151.877075,24.295755 
	C151.877075,33.091785 151.877075,41.699154 151.877075,48.929035 
	C163.563522,55.227390 174.392197,61.063465 185.915939,67.274139 
	C192.142761,63.286743 199.526291,58.558632 207.171158,53.663174 
	C215.786194,67.123062 224.211533,80.286568 232.933990,93.914284 
	C227.158005,97.629082 221.387619,101.548851 215.402603,105.107681 
	C212.059860,107.095337 210.678513,108.756775 211.730392,113.277435 
	C214.151611,123.682816 215.227051,134.367096 213.044174,145.493347 
z"/>
<path fill="#4E6575" opacity="1.000000" stroke="none" 
	d="
M406.751099,109.248962 
	C381.176483,82.769287 350.712402,64.956299 315.940186,54.591408 
	C301.614746,50.321266 286.957458,47.125553 271.829987,46.951481 
	C266.721741,46.892696 261.611115,46.414726 256.517059,45.956585 
	C252.820770,45.624157 250.855637,43.478989 251.022583,39.682297 
	C251.181152,36.076336 252.513580,34.033119 256.743164,33.923019 
	C287.945160,33.110783 317.589355,39.780376 346.122498,52.032871 
	C369.523560,62.081596 390.297729,76.014580 408.985718,93.345795 
	C426.568573,109.652145 440.796631,128.344604 452.716187,149.098465 
	C462.990326,166.987411 469.848083,186.156845 474.696106,205.937057 
	C478.048218,219.613785 478.997986,233.879303 481.089569,248.354431 
	C484.381042,245.086899 487.940552,241.538971 491.516815,238.008041 
	C493.881989,235.672867 496.448944,234.137329 499.969482,235.525497 
	C503.661285,236.981216 505.674011,241.397018 503.078918,244.236206 
	C495.132111,252.930496 486.933044,261.418121 478.427551,269.563721 
	C475.777924,272.101257 472.171844,271.865845 469.133514,268.723297 
	C461.955780,261.299438 454.549133,254.097443 447.275818,246.765320 
	C444.368896,243.834915 443.990875,239.322220 446.480865,237.073898 
	C449.807068,234.070541 453.115936,234.513672 456.089294,237.619781 
	C459.718262,241.410751 463.229584,245.314331 467.188202,248.760513 
	C464.522400,194.512787 444.913361,147.998672 406.751099,109.248962 
z"/>
<path fill="#4E6575" opacity="1.000000" stroke="none" 
	d="
M116.279739,430.766479 
	C110.427391,425.603577 104.362915,421.123627 99.351074,415.675415 
	C91.210358,406.825867 83.318542,397.672913 76.102142,388.062012 
	C57.124672,362.787598 45.009979,334.253754 38.416309,303.481384 
	C35.778217,291.169556 34.788994,278.504425 32.921471,265.081879 
	C29.197531,268.971619 25.716427,272.912079 21.907228,276.504639 
	C17.727074,280.447021 12.030009,279.673279 10.554120,275.007904 
	C10.037110,273.373627 10.105487,270.671783 11.117584,269.576111 
	C19.007225,261.034851 27.009102,252.575577 35.395542,244.527847 
	C37.977398,242.050293 41.608852,241.939514 44.702854,245.129471 
	C51.893234,252.542801 59.293499,259.752167 66.576485,267.076233 
	C69.552605,270.069153 69.998772,274.380249 67.684959,276.788147 
	C64.743584,279.849121 61.363438,279.733124 57.720474,276.168732 
	C54.068192,272.595215 50.596672,268.836975 46.424835,264.516449 
	C47.398705,289.561615 52.183739,312.573944 61.074909,334.665588 
	C68.754311,353.746399 78.571594,371.668427 91.983826,387.373352 
	C99.175812,395.794769 106.612862,404.054962 114.484756,411.836121 
	C125.667145,422.889587 138.574829,431.726593 152.175354,439.627106 
	C171.430313,450.812317 191.864944,458.879822 213.672180,463.239838 
	C222.513367,465.007507 231.536346,465.935608 240.510590,466.943024 
	C246.252747,467.587616 252.074051,467.507477 257.827484,468.078522 
	C261.540100,468.447052 263.262573,470.952545 262.968140,474.663483 
	C262.701202,478.027496 261.372375,479.963013 257.411163,480.072693 
	C226.184235,480.937500 196.583389,474.061890 167.950821,462.032471 
	C149.276993,454.187012 132.550644,443.220062 116.279739,430.766479 
z"/>
<path fill="#000000" opacity="1.000000" stroke="none" 
	d="
M202.888916,244.379181 
	C205.912079,233.115738 211.208618,223.544296 219.617386,215.932266 
	C228.112518,208.242050 238.095200,203.601456 249.497406,201.975571 
	C268.797150,199.223557 284.746216,205.897690 297.946381,219.551407 
	C305.954773,227.834915 310.415741,238.042160 312.042938,249.513718 
	C314.757080,268.647797 308.223511,284.497406 294.704102,297.628784 
	C290.916077,301.308105 286.011475,303.837921 281.278320,307.029327 
	C256.511169,318.858185 230.583344,311.542297 214.278336,292.561462 
	C205.250931,282.052551 201.029312,269.221802 201.094910,255.273285 
	C201.111359,251.776291 202.296432,248.284790 202.888916,244.379181 
z"/>
<path fill="#000000" opacity="1.000000" stroke="none" 
	d="
M143.004044,175.677292 
	C119.303001,185.919754 90.903282,170.010132 83.950325,145.288254 
	C77.701477,123.069923 88.699310,102.231728 106.346802,92.475433 
	C121.799133,83.932709 140.038742,84.399513 155.766418,96.328323 
	C170.468674,107.479378 175.582886,122.700211 173.361420,140.910355 
	C167.579132,136.923141 167.580536,136.924545 162.643982,141.859848 
	C155.595566,148.906479 148.720230,156.140045 141.415146,162.909821 
	C138.160522,165.925949 137.126358,168.366638 140.333939,171.830261 
	C141.305664,172.879547 142.012848,174.173843 143.004044,175.677292 
z"/>
<path fill="#000000" opacity="1.000000" stroke="none" 
	d="
M370.980286,338.324036 
	C389.291534,329.881073 412.354156,339.438782 422.409271,353.620453 
	C428.274292,361.892456 431.806854,370.830597 431.886658,380.743683 
	C432.059723,402.238403 415.396667,422.258240 394.330261,426.236938 
	C370.650848,430.709167 346.039764,415.199982 341.134064,390.981812 
	C339.976135,385.265411 340.499329,379.208466 340.624451,373.071045 
	C346.410187,377.087738 346.409698,377.087250 351.356567,372.139313 
	C358.522919,364.971161 365.517090,357.617920 372.933502,350.718536 
	C376.380829,347.511566 376.752167,345.016632 373.373566,341.810699 
	C372.453247,340.937408 371.866852,339.712158 370.980286,338.324036 
z"/>
</svg>