<?xml version="1.0"?>
<svg width="512" height="512" xmlns="http://www.w3.org/2000/svg" xmlns:svg="http://www.w3.org/2000/svg" enable-background="new 0 0 512 512" version="1.1" xml:space="preserve">
 <g class="layer">
  <title>Layer 1</title>
  <path d="m43.22,359.29c-0.07,-1.66 -0.21,-3.32 -0.21,-4.98c-0.01,-100 0,-199.99 -0.04,-299.99c0,-7.98 2.84,-14.2 10.16,-17.82c1.84,-0.91 4.09,-1.44 6.15,-1.44c131.83,-0.07 263.66,-0.07 395.48,-0.05c8.54,0.01 15.67,7.5 16.22,16.84c0.09,1.5 0.02,3 0.02,4.5c0,98.49 0,196.99 0,295.48c0,2.17 -0.05,4.34 -0.6,7c-142.75,0.49 -284.96,0.48 -427.18,0.46m392.79,-217.79c0,-20.32 0,-40.65 -0.01,-60.97c0,-8.34 -3.07,-11.51 -11.31,-11.51c-111.79,-0.01 -223.58,-0.01 -335.37,0c-8.25,0 -11.32,3.16 -11.32,11.5c-0.01,77.63 -0.01,155.27 0,232.9c0,9.56 2.07,11.59 11.81,11.59c111.46,0 222.91,0 334.37,0c9.89,0 11.82,-1.97 11.82,-12.08c0.01,-56.81 0.01,-113.62 0.01,-171.43z" fill="#205B75" id="svg_2" opacity="1"/>
  <path d="m43.15,359.65c142.29,-0.34 284.5,-0.33 427.18,-0.33c10.52,25.02 20.6,50.06 30.67,75.11c1.31,3.26 2.65,6.52 3.45,10.17c-51.85,0.35 -103.18,0.33 -154.49,-0.09c-3.47,-9.71 -6.82,-19.09 -10.48,-28.35c-6.46,-16.33 -6.01,-14.13 -20.92,-14.14c-43.32,-0.05 -86.65,0.02 -129.97,-0.07c-5.44,-0.02 -9.25,1.55 -11.2,7.04c-2.23,6.27 -5.04,12.33 -7.37,18.57c-2.14,5.72 -3.99,11.56 -6.44,17.37c-51.79,0.03 -103.1,0.03 -154.42,0.04c3.96,-10.32 7.8,-20.68 11.89,-30.94c6.85,-17.17 13.86,-34.27 20.81,-51.39c0.36,-0.9 0.81,-1.75 1.29,-2.99z" fill="#C9DAE9" id="svg_3" opacity="1"/>
  <path d="m9.08,445.43c51.4,-0.47 102.71,-0.47 154.96,-0.48c62.59,-0.02 124.25,-0.03 185.91,-0.05c51.32,0.03 102.65,0.05 154.43,0.07c0.52,8.49 0.74,16.98 0.59,25.47c-0.1,5.98 -2.99,8.56 -8.9,8.56c-159.4,0.01 -318.8,0.01 -478.2,0c-6.06,0 -8.78,-2.72 -8.87,-9.12c-0.11,-7.99 -0.01,-15.99 0.08,-24.45z" fill="#ABBBCC" id="svg_4" opacity="1"/>
  <path d="m436.01,142c0,57.31 0,114.12 -0.01,170.93c0,10.11 -1.93,12.08 -11.82,12.08c-111.46,0 -222.91,0 -334.37,0c-9.74,0 -11.81,-2.03 -11.81,-11.59c-0.01,-77.63 -0.01,-155.27 0,-232.9c0,-8.34 3.07,-11.5 11.32,-11.5c111.79,-0.01 223.58,-0.01 335.37,0c8.24,0 11.31,3.17 11.31,11.51c0.01,20.32 0.01,40.65 0.01,61.47m-192.51,115c23.96,0 47.91,0.03 71.87,-0.02c6.08,-0.01 9.64,-3.17 9.74,-8.32c0.12,-5.36 -3.53,-8.67 -9.85,-8.68c-33.11,-0.03 -66.21,-0.03 -99.32,0c-6.38,0 -10.05,3.22 -10.02,8.54c0.03,5.26 3.74,8.43 10.13,8.47c8.82,0.05 17.63,0.01 27.45,0.01m128.85,34.08c1.83,-0.04 3.7,0.15 5.48,-0.17c4.06,-0.71 6.51,-3.32 7.04,-7.36c0.5,-3.87 -1.25,-6.9 -4.78,-8.48c-1.74,-0.78 -3.85,-0.99 -5.8,-0.99c-29.78,-0.06 -59.57,-0.05 -89.35,-0.03c-1.49,0 -3.06,-0.08 -4.45,0.35c-4.09,1.27 -6.4,4.13 -6.38,8.48c0.02,4.11 3.23,7.55 7.43,8.08c1.65,0.2 3.33,0.11 4.99,0.11c28.29,0.01 56.57,0.01 85.82,0.01m-199.94,-107.48c1.84,3.71 4.98,5.22 8.95,5.22c22,0.01 44,0.06 65.99,-0.03c5.84,-0.03 9.65,-3.67 9.62,-8.64c-0.02,-5.03 -3.73,-8.35 -9.74,-8.37c-21.83,-0.05 -43.66,-0.06 -65.49,0c-7.53,0.02 -10.31,3.35 -9.33,11.82m-19.91,39.33c17.32,0 34.64,0.04 51.95,-0.03c6.04,-0.03 9.65,-3.29 9.73,-8.4c0.09,-5.22 -3.43,-8.58 -9.39,-8.6c-22.15,-0.06 -44.3,-0.06 -66.44,0.01c-5.62,0.01 -9.23,3.37 -9.32,8.26c-0.1,4.99 3.72,8.58 9.49,8.73c4.32,0.11 8.65,0.02 13.98,0.03m99.7,67.24c3.94,-2.29 5.72,-5.67 4.31,-10.07c-1.4,-4.35 -4.81,-6.09 -9.29,-6.08c-18.99,0.04 -37.98,-0.02 -56.97,0.03c-6.13,0.02 -10.17,3.61 -10.07,8.68c0.11,5.09 4.05,8.32 10.37,8.33c18.66,0.04 37.32,0.03 55.97,-0.01c1.65,0 3.29,-0.33 5.68,-0.88m-148.14,-164.44c-1.46,4.12 -0.15,7.42 2.86,10.37c5,4.89 9.86,9.93 14.86,14.83c4.59,4.5 9.46,4.88 13.2,1.16c3.69,-3.66 3.42,-8.8 -1.12,-13.17c-3.32,-3.19 -7.05,-5.95 -11.14,-9.34c5.11,-4.84 8.91,-8.12 12.3,-11.76c3.3,-3.55 3.07,-8.51 -0.09,-11.71c-3.16,-3.23 -8.23,-3.65 -11.69,-0.31c-6.47,6.23 -12.6,12.82 -19.18,19.93m102.57,16.84c-1.71,4.51 -0.65,8.31 3.47,10.76c4.17,2.47 7.94,1.17 11.21,-2.15c5.14,-5.2 10.41,-10.29 15.48,-15.55c4.25,-4.4 4.31,-8.79 0.13,-13.16c-5.18,-5.39 -10.49,-10.67 -15.87,-15.87c-3.96,-3.84 -9,-4.02 -12.47,-0.7c-3.66,3.5 -3.58,8.66 0.52,12.75c3.37,3.36 7.04,6.44 10.6,9.67c-4.81,5.12 -8.77,9.33 -13.07,14.25m-34.18,97.39c-11.64,0.01 -23.28,-0.08 -34.91,0.07c-4.86,0.06 -8.3,3.57 -8.5,8.06c-0.2,4.44 3.12,8.69 7.77,8.76c14.79,0.23 29.59,0.23 44.38,-0.03c4.38,-0.07 7.62,-4.3 7.56,-8.5c-0.07,-4.22 -3.41,-7.86 -7.84,-8.26c-2.48,-0.23 -4.99,-0.08 -8.46,-0.1m-13.5,-104.56c-0.91,1.77 -1.85,3.52 -2.71,5.32c-2.74,5.68 -1.59,10.59 2.99,12.95c4.58,2.35 9.38,0.43 12.19,-5.09c5.26,-10.35 10.44,-20.73 15.58,-31.14c2.81,-5.67 1.68,-10.58 -2.78,-12.94c-4.71,-2.5 -9.5,-0.49 -12.47,5.33c-4.21,8.27 -8.35,16.58 -12.8,25.57m-9.05,52.38c3.87,-2.36 5.55,-5.74 4.17,-10.14c-1.39,-4.45 -4.84,-5.96 -9.28,-5.91c-8.15,0.09 -16.29,-0.08 -24.43,0.11c-4.77,0.11 -7.97,3.26 -8.34,7.6c-0.39,4.49 2.62,8.96 7.32,9.08c9.93,0.25 19.87,-0.26 30.56,-0.74m204.79,69.22c7.31,-0.01 14.62,0.14 21.91,-0.08c4.8,-0.14 8.24,-3.77 8.37,-8.22c0.14,-4.46 -3.22,-8.5 -7.89,-8.63c-8.96,-0.23 -17.93,-0.22 -26.89,0.02c-4.45,0.11 -7.74,3.9 -7.86,8.17c-0.12,4.22 3.04,7.94 7.45,8.62c1.3,0.2 2.65,0.09 4.91,0.12m-207.22,34.09c2.49,-0.02 5,0.1 7.49,-0.08c4.68,-0.34 7.84,-3.54 8.06,-7.95c0.23,-4.57 -2.9,-8.61 -7.64,-8.86c-6.31,-0.34 -12.67,-0.35 -18.98,0.04c-4.42,0.28 -7.52,4.4 -7.37,8.66c0.16,4.35 3.38,7.77 7.96,8.09c3.16,0.22 6.33,0.08 10.48,0.1z" fill="#114559" id="svg_5" opacity="1"/>
  <path d="m349.96,444.51c-61.67,0.41 -123.33,0.42 -185.44,0.41c1.51,-5.8 3.36,-11.64 5.5,-17.36c2.33,-6.24 5.14,-12.3 7.37,-18.57c1.95,-5.49 5.76,-7.06 11.2,-7.04c43.32,0.09 86.65,0.02 129.97,0.07c14.91,0.01 14.46,-2.19 20.92,14.14c3.66,9.26 7.01,18.64 10.48,28.35z" fill="#E1EAF4" id="svg_6" opacity="1"/>
  <path d="m243,257c-9.32,0 -18.13,0.04 -26.95,-0.01c-6.39,-0.04 -10.1,-3.21 -10.13,-8.47c-0.03,-5.32 3.64,-8.54 10.02,-8.54c33.11,-0.03 66.21,-0.03 99.32,0c6.32,0.01 9.97,3.32 9.85,8.68c-0.1,5.15 -3.66,8.31 -9.74,8.32c-23.96,0.05 -47.91,0.02 -72.37,0.02z" fill="#EA6374" id="svg_7" opacity="1"/>
  <path d="m371.87,291.08c-28.77,0 -57.05,0 -85.34,-0.01c-1.66,0 -3.34,0.09 -4.99,-0.11c-4.2,-0.53 -7.41,-3.97 -7.43,-8.08c-0.02,-4.35 2.29,-7.21 6.38,-8.48c1.39,-0.43 2.96,-0.35 4.45,-0.35c29.78,-0.02 59.57,-0.03 89.35,0.03c1.95,0 4.06,0.21 5.8,0.99c3.53,1.58 5.28,4.61 4.78,8.48c-0.53,4.04 -2.98,6.65 -7.04,7.36c-1.78,0.32 -3.65,0.13 -5.96,0.17z" fill="#81EBFE" id="svg_8" opacity="1"/>
  <path d="m172.27,183.22c-0.84,-8.09 1.94,-11.42 9.47,-11.44c21.83,-0.06 43.66,-0.05 65.49,0c6.01,0.02 9.72,3.34 9.74,8.37c0.03,4.97 -3.78,8.61 -9.62,8.64c-21.99,0.09 -43.99,0.04 -65.99,0.03c-3.97,0 -7.11,-1.51 -9.09,-5.6z" fill="#E76274" id="svg_9" opacity="1"/>
  <path d="m152,222.93c-4.83,-0.01 -9.16,0.08 -13.48,-0.03c-5.77,-0.15 -9.59,-3.74 -9.49,-8.73c0.09,-4.89 3.7,-8.25 9.32,-8.26c22.14,-0.07 44.29,-0.07 66.44,-0.01c5.96,0.02 9.48,3.38 9.39,8.6c-0.08,5.11 -3.69,8.37 -9.73,8.4c-17.31,0.07 -34.63,0.03 -52.45,0.03z" fill="#E3BA33" id="svg_10" opacity="1"/>
  <path d="m251.83,290.35c-2.02,0.37 -3.66,0.7 -5.31,0.7c-18.65,0.04 -37.31,0.05 -55.97,0.01c-6.32,-0.01 -10.26,-3.24 -10.37,-8.33c-0.1,-5.07 3.94,-8.66 10.07,-8.68c18.99,-0.05 37.98,0.01 56.97,-0.03c4.48,-0.01 7.89,1.73 9.29,6.08c1.41,4.4 -0.37,7.78 -4.68,10.25z" fill="#E96374" id="svg_11" opacity="1"/>
  <path d="m104.22,125.39c6.42,-6.77 12.55,-13.36 19.02,-19.59c3.46,-3.34 8.53,-2.92 11.69,0.31c3.16,3.2 3.39,8.16 0.09,11.71c-3.39,3.64 -7.19,6.92 -12.3,11.76c4.09,3.39 7.82,6.15 11.14,9.34c4.54,4.37 4.81,9.51 1.12,13.17c-3.74,3.72 -8.61,3.34 -13.2,-1.16c-5,-4.9 -9.86,-9.94 -14.86,-14.83c-3.01,-2.95 -4.32,-6.25 -2.7,-10.71z" fill="#F8FAFA" id="svg_12" opacity="1"/>
  <path d="m206.8,142.22c4.13,-4.57 8.09,-8.78 12.9,-13.9c-3.56,-3.23 -7.23,-6.31 -10.6,-9.67c-4.1,-4.09 -4.18,-9.25 -0.52,-12.75c3.47,-3.32 8.51,-3.14 12.47,0.7c5.38,5.2 10.69,10.48 15.87,15.87c4.18,4.37 4.12,8.76 -0.13,13.16c-5.07,5.26 -10.34,10.35 -15.48,15.55c-3.27,3.32 -7.04,4.62 -11.21,2.15c-4.12,-2.45 -5.18,-6.25 -3.3,-11.11z" fill="#FCFDFD" id="svg_13" opacity="1"/>
  <path d="m172.94,239.96c2.98,0.02 5.49,-0.13 7.97,0.1c4.43,0.4 7.77,4.04 7.84,8.26c0.06,4.2 -3.18,8.43 -7.56,8.5c-14.79,0.26 -29.59,0.26 -44.38,0.03c-4.65,-0.07 -7.97,-4.32 -7.77,-8.76c0.2,-4.49 3.64,-8 8.5,-8.06c11.63,-0.15 23.27,-0.06 35.4,-0.07z" fill="#E4BA33" id="svg_14" opacity="1"/>
  <path d="m159.09,135.05c4.31,-8.64 8.45,-16.95 12.66,-25.22c2.97,-5.82 7.76,-7.83 12.47,-5.33c4.46,2.36 5.59,7.27 2.78,12.94c-5.14,10.41 -10.32,20.79 -15.58,31.14c-2.81,5.52 -7.61,7.44 -12.19,5.09c-4.58,-2.36 -5.73,-7.27 -2.99,-12.95c0.86,-1.8 1.8,-3.55 2.85,-5.67z" fill="#FBFCFC" id="svg_15" opacity="1"/>
  <path d="m149.52,187.92c-10.31,0.34 -20.25,0.85 -30.18,0.6c-4.7,-0.12 -7.71,-4.59 -7.32,-9.08c0.37,-4.34 3.57,-7.49 8.34,-7.6c8.14,-0.19 16.28,-0.02 24.43,-0.11c4.44,-0.05 7.89,1.46 9.28,5.91c1.38,4.4 -0.3,7.78 -4.55,10.28z" fill="#E1B934" id="svg_16" opacity="1"/>
  <path d="m354.22,257c-1.79,-0.03 -3.14,0.08 -4.44,-0.12c-4.41,-0.68 -7.57,-4.4 -7.45,-8.62c0.12,-4.27 3.41,-8.06 7.86,-8.17c8.96,-0.24 17.93,-0.25 26.89,-0.02c4.67,0.13 8.03,4.17 7.89,8.63c-0.13,4.45 -3.57,8.08 -8.37,8.22c-7.29,0.22 -14.6,0.07 -22.38,0.08z" fill="#81EBFE" id="svg_17" opacity="1"/>
  <path d="m146.98,291.09c-3.66,-0.02 -6.83,0.12 -9.99,-0.1c-4.58,-0.32 -7.8,-3.74 -7.96,-8.09c-0.15,-4.26 2.95,-8.38 7.37,-8.66c6.31,-0.39 12.67,-0.38 18.98,-0.04c4.74,0.25 7.87,4.29 7.64,8.86c-0.22,4.41 -3.38,7.61 -8.06,7.95c-2.49,0.18 -5,0.06 -7.98,0.08z" fill="#E2B934" id="svg_18" opacity="1"/>
 </g>
</svg>